# xmcd
#
# Track frame offsets: 
#        150
#        21398
#        52998
#        63863
#        82245
#        109945
#        132253
#        148830
#        166638
#        186290
#        200498
#        227533
#        250695
#        269095
#        281753
#        300033
#        311158
#
# Disc length: 4457 seconds
#
# Revision: 4
# Processed by: cddbd v1.5.2PL0 Copyright (c) Steve Scherf et al.
# Submitted via: ExactAudioCopy v0.99pb3
#
DISCID=f3116711
DTITLE=Nina Simone - Do Nothin  Till You Hear From Me
DYEAR=1900
DGENRE=Jazz
TTITLE0=Just In Time
TTITLE1=House Of The Rising Sun
TTITLE2=It Don t Mean A Thing
TTITLE3=I Loves You Porgy
TTITLE4=Gin House Blues
TTITLE5=Assignment Song
TTITLE6=Solitude
TTITLE7=Sea Lion Woman
TTITLE8=No Opportunity Necessary, No Experience Needed
TTITLE9=Black Is The Color
TTITLE10=Wild Is The Wind
TTITLE11=Nobody
TTITLE12=Don't Let Me Be Misunderstood
TTITLE13=Do Nothin  Till You Hear From Me
TTITLE14=I Got It Bad And That Ain't Good
TTITLE15=Hey Buddy Bolden
TTITLE16=My Way
EXTD=
EXTT0=
EXTT1=
EXTT2=
EXTT3=
EXTT4=
EXTT5=
EXTT6=
EXTT7=
EXTT8=
EXTT9=
EXTT10=
EXTT11=
EXTT12=
EXTT13=
EXTT14=
EXTT15=
EXTT16=
PLAYORDER=
